PathFileType	4	(X/Y/Z)	C:\Users\chris\Documents\GitHub\baseballds\vids\pitch4_Sports2D\pitch4_Sports2D_px_person00.trc
DataRate	CameraRate	NumFrames	NumMarkers	Units	OrigDataRate	OrigDataStartFrame	OrigNumFrames
30	30	13	22	m	30	59	238
Frame#	Time	Hip			RHip			RKnee			RAnkle			RBigToe			RSmallToe			RHeel			LHip			LKnee			LAnkle			LBigToe			LSmallToe			LHeel			Neck			Head			Nose			RShoulder			RElbow			RWrist			LShoulder			LElbow			LWrist		
		X1	Y1	Z1	X2	Y2	Z2	X3	Y3	Z3	X4	Y4	Z4	X5	Y5	Z5	X6	Y6	Z6	X7	Y7	Z7	X8	Y8	Z8	X9	Y9	Z9	X10	Y10	Z10	X11	Y11	Z11	X12	Y12	Z12	X13	Y13	Z13	X14	Y14	Z14	X15	Y15	Z15	X16	Y16	Z16	X17	Y17	Z17	X18	Y18	Z18	X19	Y19	Z19	X20	Y20	Z20	X21	Y21	Z21	X22	Y22	Z22
59	1.9666666666666666	212.2183230452846	1018.9769042542372	0.0	181.2254926509458	1034.7232410878312	0.0	272.8155269202971	1346.3295056805273	0.0	216.63756883070738	1655.9123430108166	0.0	364.3094996255169	1714.8488004798114	0.0	328.8283184674195	1731.3095947422676	0.0	187.48858470404917	1694.8288954013965	0.0	257.75662020505104	1028.666931118614	0.0	294.0615798345642	1317.4506941577763	0.0	273.3507113018342	1543.6314755608319	0.0	407.43248473935944	1599.2348994045421	0.0	389.8614141490261	1574.5502637508678	0.0	244.08692409029828	1578.2139327980453	0.0	321.5550659317427	581.3169917064631	0.0	346.71147110473703	384.7856185469972	0.0	432.69156989276996	492.56656573219624	0.0	269.45349334277796	652.5630609187119	0.0	226.25525314045638	899.5929891882689	0.0	436.2611679132216	937.4065791045413	0.0	367.3000014985579	658.2847796420888	0.0	337.7936781585552	859.5346569592621	0.0	437.1529343147634	927.8370844887086	0.0
60	2.0	213.62446239622471	1021.4111071176795	0.0	181.60886073017994	1037.8342689442545	0.0	274.8292764361378	1348.1757467634707	0.0	216.51177702027803	1657.9697399111924	0.0	362.61686542706036	1717.4479406612036	0.0	327.2147833253366	1732.1772023029623	0.0	186.69115393024148	1696.552050393485	0.0	258.40716102434396	1031.8782193315983	0.0	298.0001522329482	1319.7164758217928	0.0	273.4745103809598	1548.2681462607904	0.0	406.8252244979482	1611.0131887140117	0.0	390.5824247502126	1585.6920827709357	0.0	246.1985880802389	1583.287130373339	0.0	320.97304041361343	585.1947204906095	0.0	346.32527805288186	388.58646818197565	0.0	432.48722210507583	497.6544674678466	0.0	267.5660006923166	657.4520180928207	0.0	230.27159152009207	903.9013261060286	0.0	439.104698820889	933.5018090915974	0.0	365.59194076950047	661.4009007287697	0.0	337.8887081122472	861.4265976290247	0.0	436.79633850215765	930.028250171483	0.0
61	2.033333333333333	214.06838385892397	1023.9760286530131	0.0	181.47236079575254	1040.814468275854	0.0	278.4125923519318	1349.5591227252355	0.0	216.75569500213862	1659.7718081675994	0.0	363.57242737780496	1719.1228226153082	0.0	328.9436127432654	1732.2784546382102	0.0	186.46899294867725	1698.561857029448	0.0	259.6745229791917	1034.7912044835828	0.0	303.1095406006996	1322.0838469225966	0.0	274.1217994014296	1550.7073394543254	0.0	405.90271526666595	1621.6155569550801	0.0	389.967244434174	1594.8766485070566	0.0	247.65559821788972	1585.0778876571476	0.0	320.3196075945854	588.586684426692	0.0	345.18130245687337	393.7797846087726	0.0	432.4275013878366	501.00112149303527	0.0	266.29204588158854	662.4630515975065	0.0	235.13788734495836	909.1965928034083	0.0	439.964817816621	931.8618117757825	0.0	364.53129664797103	665.0585634893662	0.0	337.96468942748504	865.6720157115211	0.0	439.39194891022635	926.2354046339827	0.0
62	2.0666666666666664	214.17903700730687	1027.6345945485473	0.0	181.70221419329528	1044.5854158734473	0.0	283.54226035089096	1350.9955052651749	0.0	216.58177916772868	1660.7159540736243	0.0	363.3016500021132	1718.6887228718017	0.0	329.1961728668822	1730.9334845479852	0.0	186.10078342061735	1700.1478362005246	0.0	260.33679186098817	1038.3965198513868	0.0	307.29070694393226	1324.6040283290665	0.0	276.4465070707881	1552.7038707539818	0.0	405.98812510906794	1626.8031818060517	0.0	389.8254599826826	1599.443579814817	0.0	249.25011865597241	1585.8050659742107	0.0	319.8439036565505	591.8140499984924	0.0	344.2492821716087	399.4952903925605	0.0	432.27390962426034	502.8244702879194	0.0	265.40903323668175	667.1029224766328	0.0	239.85848198005516	914.541670020007	0.0	440.48551797998016	932.1846537655484	0.0	363.3993657099242	669.3546164030834	0.0	337.7972595369741	870.4104244588808	0.0	442.6103225868344	921.9186175060352	0.0
63	2.1	215.18957183670574	1031.5010922095933	0.0	183.57087059687484	1048.841867410944	0.0	289.53333138960033	1353.110465210757	0.0	216.40186089070562	1660.590761900789	0.0	360.9248734619674	1716.472366351994	0.0	327.03377201284343	1728.466518716091	0.0	185.68850986288925	1701.3437096296025	0.0	259.6871943452754	1042.6161007104563	0.0	309.5768042561579	1327.3667028838154	0.0	278.9419970946396	1555.748305843906	0.0	407.27566313918794	1627.716845015808	0.0	391.0063469799818	1600.5446932980408	0.0	250.8716810481087	1588.0694780242536	0.0	319.4312491177564	595.3913886463419	0.0	344.3672441325266	404.38665146615057	0.0	431.51736939200345	505.9750315916966	0.0	265.01537119741346	670.8686431496599	0.0	243.70360672428268	919.230785412386	0.0	440.7835741347828	933.2890722642296	0.0	361.4023360612443	674.0906626449752	0.0	336.7892314748435	874.5567908337248	0.0	445.08231616853095	921.1465835870898	0.0
64	2.1333333333333333	217.1186668011407	1033.471068963205	0.0	186.49878041380208	1050.9281211284158	0.0	294.7377743686153	1355.218812908978	0.0	217.52595746188624	1660.5860597265057	0.0	360.9627639756602	1715.4150959062	0.0	327.6698452754263	1727.3648086636113	0.0	186.23735185854352	1702.2864787015571	0.0	259.19318085769726	1045.1347395712276	0.0	311.62502699892605	1329.808021966392	0.0	279.3801293019049	1558.8887783579921	0.0	408.60797189808846	1628.5525347689713	0.0	392.41956133740825	1601.4851676350427	0.0	251.05848820172886	1590.9151937084978	0.0	319.51525011593856	598.8309715455666	0.0	344.256018850854	407.885396189286	0.0	430.1933072424995	509.75382598205607	0.0	266.0389788708454	673.3883755024269	0.0	246.159940953476	921.9621496637244	0.0	439.68432401388196	933.9076310133225	0.0	359.63371428951905	677.9049114754448	0.0	335.93699505514445	878.6346613872773	0.0	446.6312422709584	921.4287023216173	0.0
65	2.1666666666666665	218.70293462329983	1032.7783723722027	0.0	188.83859556908007	1049.7041106722827	0.0	297.4605041259514	1355.638866449717	0.0	219.5340758228762	1661.4043043738295	0.0	364.9458463161939	1716.9709293465385	0.0	332.20368140980395	1728.9357654712949	0.0	187.62845298243477	1702.7628437270341	0.0	260.17602486639066	1044.8097113047331	0.0	314.25105026396074	1331.272448052444	0.0	277.551642307354	1560.6381103447125	0.0	408.46386931286986	1631.1308092731008	0.0	392.36095431761777	1604.268403375294	0.0	248.91267876209798	1592.6092063097424	0.0	320.3566593014118	601.641097698179	0.0	342.58632834725034	411.08077198909047	0.0	428.66128794156145	511.4021533432229	0.0	267.9272779660271	675.0434788580724	0.0	247.35926554751904	922.1942273090151	0.0	438.20676346966025	934.2564903124004	0.0	359.2152099547417	679.8683719468884	0.0	336.3425581183268	882.4051732583991	0.0	447.5572489458175	921.5627908041802	0.0
66	2.2	219.29740834065913	1030.790843871474	0.0	190.22872037682168	1048.0291974210638	0.0	298.12512453987824	1354.3689779856104	0.0	220.83144515194232	1662.288933877684	0.0	368.61694803927384	1718.7421882029792	0.0	335.8935933591696	1731.1169617383014	0.0	188.61597189249352	1703.1676352840936	0.0	261.7424160446034	1043.6415926992663	0.0	315.22270266072064	1332.1381623317518	0.0	275.82709752718125	1560.854609162673	0.0	407.4457443949622	1633.2232337876194	0.0	391.35173303221165	1606.8944953949672	0.0	246.39523428109277	1593.3487612903991	0.0	321.2954656022077	603.4305636383762	0.0	341.1179576925474	414.9403539979725	0.0	427.677657162434	511.58500133640433	0.0	268.83929403116656	676.4299310785444	0.0	248.73416007438345	921.8419292694276	0.0	438.45342522530416	934.6603230793003	0.0	360.2785988290326	681.0475187468477	0.0	337.2807207780394	884.7847934671732	0.0	449.1222173277306	923.2771435635866	0.0
67	2.2333333333333334	219.4596264884023	1029.439836255557	0.0	191.16976558475696	1048.506437635751	0.0	298.49003213310317	1353.4768507751899	0.0	221.1611943962299	1663.1742748303218	0.0	369.346205058754	1718.9171861655834	0.0	336.6451165952407	1732.1408792757766	0.0	188.58252971362114	1704.5187059817022	0.0	262.5204764987278	1043.5722681523557	0.0	314.059600047602	1332.8313194609698	0.0	276.0227121771608	1560.6415896960161	0.0	407.95667649905977	1632.7735866260718	0.0	391.8400080986	1606.7627218973657	0.0	246.45356958807844	1594.4008758288257	0.0	321.90841636502114	604.1973654092175	0.0	341.3691847332536	418.1412944778288	0.0	427.97645448472565	512.6353443800588	0.0	268.4623359327328	677.4929485506464	0.0	251.03068373628525	922.5537252679293	0.0	439.6776945655551	935.0144272841885	0.0	362.1542039792564	682.5706554159142	0.0	337.91964445139206	885.902986445758	0.0	451.44839670688384	926.5015927490198	0.0
68	2.2666666666666666	219.93132490587718	1029.5096697773677	0.0	191.96331179318133	1049.5297527743	0.0	299.19643945772117	1353.5938480571253	0.0	221.3149643759544	1664.4397690994979	0.0	369.625525708379	1719.4760455588028	0.0	336.6482000591167	1733.1196040069399	0.0	188.067897695017	1706.2485727446187	0.0	263.11931344094694	1043.6681488717625	0.0	314.15453397007366	1332.7511475452998	0.0	277.2348580182124	1561.4989454927022	0.0	410.3458983646891	1632.152390667304	0.0	394.2350319290657	1605.7680970106028	0.0	249.0193047400559	1596.0320789012694	0.0	322.38293898491696	605.0710098872089	0.0	341.22075770478557	419.0195399182164	0.0	428.31900129239125	513.808785126292	0.0	268.28460590832066	678.0231819871265	0.0	252.88378303277963	923.1842623509286	0.0	439.8637296459604	935.3019305023132	0.0	362.86827396613876	683.9036862938517	0.0	338.4110027240177	886.4891567250892	0.0	452.5254723085329	928.7608124961505	0.0
69	2.3	221.50354877841053	1030.6169341627685	0.0	193.147918913041	1049.3203808046826	0.0	300.2644595935011	1353.7596354652862	0.0	221.43830827875115	1665.5892259594277	0.0	371.5400471392289	1722.085994389483	0.0	337.21028977376466	1735.189153549841	0.0	187.79169728048572	1706.8302398375226	0.0	265.0864078268804	1043.1017506281864	0.0	316.8016370125731	1331.9117534797492	0.0	277.7763902613012	1563.7335227705553	0.0	412.0420828304701	1634.3410384169897	0.0	395.95644320683857	1606.9958933877883	0.0	250.9853497982192	1597.2978308681854	0.0	322.253490614749	606.6492222390757	0.0	339.0421382235497	418.40790384758975	0.0	426.46547692877175	513.3771536742779	0.0	268.6736778183538	678.4597951921642	0.0	253.17398085678337	922.6048480445685	0.0	439.2114853129194	935.0657285875914	0.0	360.9309823164704	684.3904638293643	0.0	338.6565078115897	886.7206412926082	0.0	451.39722720686257	928.5493348618111	0.0
70	2.3333333333333335	224.14317034945722	1032.3497973883655	0.0	194.85317165719982	1049.7210617011617	0.0	302.3901993810324	1353.888075465017	0.0	221.48768511952667	1666.8433548491569	0.0	373.20396222495583	1724.782858753601	0.0	337.57929935909374	1737.405687248072	0.0	187.86700929672952	1707.2644579748119	0.0	267.3217345634055	1043.8808585847066	0.0	318.82603319075577	1331.555791261191	0.0	277.70674024323836	1565.5718785520605	0.0	411.71696581026674	1637.1584381761206	0.0	395.61385458194917	1609.2330539815987	0.0	250.89254926443252	1598.1022250521607	0.0	320.6777578588909	607.9190032921013	0.0	336.4474779986009	418.4161782398362	0.0	422.88822776492395	512.4871043645318	0.0	268.2730282595034	679.3472429719689	0.0	253.01601156188406	922.120640098846	0.0	439.23324463203596	934.0418035179516	0.0	357.4282539890074	684.4440520854728	0.0	337.8647087124163	887.4098029387922	0.0	450.52791337061456	927.0832670640689	0.0
71	2.3666666666666667	226.34141952733364	1034.7206062799162	0.0	196.48241840631113	1052.8122521777166	0.0	305.48296173136555	1354.512785285535	0.0	222.12246121414233	1668.5818838574155	0.0	372.8868714719421	1726.0149441159717	0.0	337.57931721474336	1739.0648640371264	0.0	188.23515981103893	1709.1670122933906	0.0	267.44996308589697	1047.5779429056877	0.0	318.4337071196167	1332.5705960992325	0.0	278.6768049985073	1565.4700349554191	0.0	411.2102646276512	1636.9789355712398	0.0	395.0348146532594	1609.8455534839911	0.0	250.96885846857793	1599.1380653042536	0.0	318.2073871548224	608.291385612166	0.0	334.9412114596764	419.724026612966	0.0	420.44561710839116	513.0037046404852	0.0	266.8979721786707	680.7525367349357	0.0	253.8800768710464	923.2122620760853	0.0	440.7731061686352	933.1300245874507	0.0	354.3860921107945	684.9937577456698	0.0	335.72135434880596	889.4740403549108	0.0	452.8715304070923	925.7578955995114	0.0
